<?xml version="1.0" encoding="iso-8859-1"?>
<!-- Generator: Adobe Illustrator 19.0.0, SVG Export Plug-In . SVG Version: 6.00 Build 0)  -->
<svg version="1.1" id="Capa_1" xmlns="http://www.w3.org/2000/svg" xmlns:xlink="http://www.w3.org/1999/xlink" x="0px" y="0px"
	 viewBox="0 0 512 512" style="enable-background:new 0 0 512 512;" xml:space="preserve">
<circle style="fill:#9AA9FF;" cx="99.17" cy="445.49" r="38.472"/>
<circle style="fill:#FE7A77;" cx="247.53" cy="247.53" r="150.03"/>
<circle style="fill:#C6ECF6;" cx="430" cy="430" r="72"/>
<circle style="fill:#FFDFAD;" cx="475" cy="229" r="27"/>
<circle style="fill:#C6ECF6;" cx="62" cy="62" r="52"/>
<path d="M247.528,407.557c88.24,0,160.028-71.788,160.028-160.028c0-14.121-1.847-27.818-5.297-40.87
	c12.162-17.303,22.719-34.2,31.358-50.308c28.062-52.32,32.754-90.116,13.568-109.302c-10.531-10.532-32.83-19.188-79.245-0.615
	c-5.127,2.052-7.621,7.871-5.569,12.999c2.051,5.128,7.871,7.619,12.999,5.569c27.908-11.167,48.928-12.556,57.674-3.811
	c11.61,11.609,5.076,44.45-17.052,85.706c-6.286,11.721-13.639,23.891-21.93,36.351C369.259,126.925,312.916,87.5,247.528,87.5
	C159.289,87.5,87.5,159.288,87.5,247.528c0,65.285,39.301,121.554,95.481,146.418c-14.959,9.915-29.429,18.42-43.1,25.289
	c-8.642-13.354-23.657-22.217-40.713-22.217c-18.083,0-33.874,9.96-42.204,24.677c-3.052-16.183,5.136-44.072,23.256-77.317
	c2.643-4.85,0.855-10.924-3.995-13.566s-10.923-0.854-13.566,3.994C33.5,388.305,28.387,426.881,47.871,446.364
	c0.869,0.869,1.863,1.534,2.919,2.016c1.501,25.386,22.621,45.583,48.378,45.583c26.728,0,48.472-21.745,48.472-48.473
	c0-2.543-0.199-5.041-0.579-7.479c18.604-9.213,38.621-21.351,59.301-35.832C219.504,405.68,233.3,407.557,247.528,407.557z
	 M99.168,473.963c-15.699,0-28.472-12.772-28.472-28.473c0-15.699,12.772-28.472,28.472-28.472s28.472,12.772,28.472,28.472
	C127.64,461.19,114.868,473.963,99.168,473.963z M387.557,247.528c0,77.212-62.816,140.028-140.028,140.028
	c-6.564,0-13.02-0.465-19.345-1.343c28.053-21.391,56.821-46.599,84.537-74.315c27.443-27.443,52.335-55.752,73.532-83.442
	C387.106,234.695,387.557,241.059,387.557,247.528z M107.5,247.528c0-77.212,62.816-140.028,140.028-140.028
	c61.655,0,114.127,40.055,132.771,95.509c-22.6,31.109-50.434,63.46-81.721,94.747c-31.558,31.559-64.408,59.737-95.806,82.466
	C147.441,361.51,107.5,309.096,107.5,247.528z"/>
<path d="M336.794,82.623c1.65,0,3.323-0.409,4.866-1.271c0.056-0.031,0.122-0.067,0.195-0.109l0.167-0.092
	c4.833-2.673,6.584-8.758,3.911-13.591c-2.673-4.833-8.759-6.582-13.591-3.911c-0.083,0.046-0.184,0.102-0.301,0.17l-0.001-0.002
	l-0.131,0.074c-4.822,2.692-6.548,8.784-3.855,13.606C329.885,80.775,333.287,82.623,336.794,82.623z"/>
<path d="M430,348c-45.215,0-82,36.785-82,82s36.785,82,82,82s82-36.785,82-82S475.215,348,430,348z M430,492
	c-34.187,0-62-27.813-62-62s27.813-62,62-62s62,27.813,62,62S464.187,492,430,492z"/>
<path d="M438,229c0,20.402,16.598,37,37,37s37-16.598,37-37s-16.598-37-37-37S438,208.598,438,229z M475,212c9.374,0,17,7.626,17,17
	s-7.626,17-17,17s-17-7.626-17-17S465.626,212,475,212z"/>
<path d="M124,62c0-34.187-27.813-62-62-62S0,27.813,0,62s27.813,62,62,62S124,96.187,124,62z M20,62c0-23.159,18.841-42,42-42
	s42,18.841,42,42s-18.841,42-42,42S20,85.159,20,62z"/>
<path d="M247.528,135.397h-0.2c-5.523,0-10,4.478-10,10s4.477,10,10,10h0.2c5.523,0,10-4.478,10-10S253.051,135.397,247.528,135.397
	z"/>
<path d="M203.064,144.563c-41.106,17.772-67.667,58.189-67.667,102.966c0,5.522,4.477,10,10,10s10-4.478,10-10
	c0-36.793,21.826-70.004,55.604-84.608c5.069-2.191,7.402-8.078,5.21-13.147S208.132,142.369,203.064,144.563z"/>
<g>
</g>
<g>
</g>
<g>
</g>
<g>
</g>
<g>
</g>
<g>
</g>
<g>
</g>
<g>
</g>
<g>
</g>
<g>
</g>
<g>
</g>
<g>
</g>
<g>
</g>
<g>
</g>
<g>
</g>
</svg>
