<svg height="511pt" viewBox="-1 0 511 511.99892" width="511pt" xmlns="http://www.w3.org/2000/svg"><path d="m290.058594 362.222656c0 77.195313-62.582032 139.777344-139.78125 139.777344-77.199219 0-139.777344-62.582031-139.777344-139.777344 0-77.199218 62.578125-139.78125 139.777344-139.78125 77.199218 0 139.78125 62.582032 139.78125 139.78125zm0 0" fill="#95e8fa"/><path d="m419.769531 107.363281c0 53.773438-43.59375 97.367188-97.367187 97.367188-53.773438 0-97.367188-43.59375-97.367188-97.367188 0-53.773437 43.59375-97.367187 97.367188-97.367187 53.773437 0 97.367187 43.59375 97.367187 97.367187zm0 0" fill="#d8a1e4"/><path d="m465.957031 266.226562c-13.789062-26.449218-46.410156-36.707031-72.859375-22.914062-26.449218 13.789062-36.707031 46.410156-22.914062 72.859375 13.789062 26.449219 46.410156 36.707031 72.859375 22.914063 26.449219-13.789063 36.707031-46.410157 22.914062-72.859376zm0 0" fill="#f0838f"/><path d="m393.0625 40.363281h-60.238281c-6.816407 0-13.363281 2.710938-18.1875 7.542969l-3.285157 3.273438c-4.820312 4.820312-11.355468 7.53125-18.183593 7.53125h-55.132813c16.835938-29.121094 48.316406-48.714844 84.371094-48.714844 27.816406 0 52.90625 11.667968 70.65625 30.367187zm0 0" fill="#c478d7"/><path d="m419.769531 107.363281c0 35.695313-19.207031 66.894531-47.859375 83.851563l-32.105468-32.105469c-2.925782-2.925781-6.894532-4.574219-11.039063-4.574219h-40.476563c-4.308593 0-8.21875-1.746094-11.042968-4.574218-2.828125-2.816407-4.574219-6.722657-4.574219-11.03125 0-8.621094 6.992187-15.613282 15.617187-15.613282h4.15625c4.144532 0 8.113282-1.648437 11.039063-4.574218l10.546875-10.539063c2.929688-2.9375 6.894531-4.574219 11.03125-4.574219h94.628906c.058594 1.242188.078125 2.484375.078125 3.734375zm0 0" fill="#c478d7"/><g fill="#d1ed7e"><path d="m259.566406 275.066406-21.460937 30.984375c-1.863281 2.699219-2.867188 5.902344-2.867188 9.175781v45.707032c0 8.898437-7.210937 16.113281-16.109375 16.113281-4.457031 0-8.484375 1.804687-11.390625 4.722656-2.917969 2.90625-4.722656 6.933594-4.722656 11.386719v13.832031c0 5.277344-2.589844 10.226563-6.925781 13.234375l-9.324219 6.46875c-10.683594 7.410156-25.296875-.238281-25.296875-13.234375v-60.6875l-24.097656-24.097656c-3.019532-3.027344-4.714844-7.125-4.714844-11.390625v-32.25c0-4.277344 1.699219-8.375 4.714844-11.390625l17.261718-17.261719c3.015626-3.015625 4.710938-7.113281 4.710938-11.390625v-22.253906c40.535156 2.589844 76.371094 22.460937 100.222656 52.332031zm0 0"/><path d="m118.359375 463.296875v35.042969c-55.566406-12.976563-98.386719-59.097656-106.472656-116.382813l9.902343-3.332031h20.199219c9.238281 0 16.726563 7.488281 16.726563 16.726562v8.300782c0 4.4375 1.765625 8.691406 4.902344 11.828125l26.191406 26.191406c3.132812 3.132813 7.390625 4.902344 11.824218 4.902344 4.625 0 8.800782 1.875 11.828126 4.898437 3.023437 3.027344 4.898437 7.210938 4.898437 11.824219zm0 0"/><path d="m76.949219 276.773438v33.800781c0 4.703125-1.863281 9.207031-5.1875 12.53125-3.460938 3.453125-7.996094 5.1875-12.53125 5.1875-4.535157 0-9.066407-1.734375-12.519531-5.1875l-22.113282-22.113281c8.867188-18.1875 21.566406-34.160157 37.054688-46.859376l10.109375 10.113282c3.324219 3.320312 5.1875 7.824218 5.1875 12.527344zm0 0"/></g><path d="m506.828125 242.160156c-6.050781-11.601562-23.253906-12.808594-52.523437-3.675781-18.898438-12.945313-44.15625-15.335937-65.84375-4.023437-21.6875 11.308593-34.183594 33.382812-34.390626 56.285156-24.246093 18.761718-33.109374 33.566406-27.054687 45.171875 3.957031 7.585937 12.445313 9.738281 20.996094 9.738281 8.476562 0 17.015625-2.117188 21.246093-3.167969 2.515626-.625 5.121094-1.34375 7.792969-2.136719 11.554688 9.613282 26.171875 14.863282 41.113281 14.863282 9.960938 0 20.0625-2.328125 29.488282-7.246094 15.160156-7.902344 26.332031-21.238281 31.464844-37.550781 2.554687-8.121094 3.457031-16.496094 2.742187-24.726563 2.164063-1.726562 4.234375-3.441406 6.175781-5.136718 6.59375-5.765626 26.664063-23.296876 18.792969-38.394532zm-109.121094 10.035156c6.484375-3.382812 13.425781-4.984374 20.277344-4.984374 15.882813 0 31.253906 8.621093 39.09375 23.65625 1.082031 2.078124 1.980469 4.214843 2.714844 6.390624-9.804688 6.957032-22.183594 14.652344-37.269531 22.519532-15.089844 7.867187-28.484376 13.605468-39.804688 17.664062-1.359375-1.832031-2.59375-3.792968-3.683594-5.878906-11.21875-21.519531-2.84375-48.148438 18.671875-59.367188zm-51.035156 73.523438c1.714844-2.652344 5.160156-6.789062 11.367187-12.308594.925782 2.5 2 4.972656 3.261719 7.398438.476563.90625.972657 1.792968 1.484375 2.667968-7.226562 1.707032-12.683594 2.363282-16.113281 2.242188zm113.363281-21.300781c-3.527344 11.210937-11.207031 20.382812-21.632812 25.816406-12.035156 6.277344-25.671875 6.417969-37.316406 1.558594 9.925781-4.054688 20.289062-8.863281 30.683593-14.28125 10.402344-5.425781 20.285157-11.175781 29.296875-16.996094-.285156 1.304687-.625 2.609375-1.03125 3.902344zm16.125-40.050781c-.429687-.925782-.875-1.839844-1.347656-2.75-1.265625-2.421876-2.679688-4.71875-4.199219-6.910157 8.082031-1.925781 13.4375-2.378906 16.59375-2.269531-1.859375 2.886719-5.515625 6.988281-11.046875 11.929688zm0 0"/><path d="m329.753906 74.699219c1.601563 3.898437 5.683594 6.449219 9.894532 6.15625 4.230468-.292969 7.890624-3.296875 8.996093-7.390625 1.074219-3.984375-.492187-8.367188-3.875-10.742188-3.265625-2.296875-7.65625-2.429687-11.058593-.339844-4.109376 2.527344-5.804688 7.871094-3.957032 12.316407zm0 0"/><path d="m251.445312 463.691406c-1.582031-3.855468-5.542968-6.371094-9.703124-6.167968-4.136719.199218-7.761719 3.003906-9.039063 6.929687-1.320313 4.050781.191406 8.652344 3.640625 11.144531 3.292969 2.382813 7.789062 2.523438 11.222656.351563 4.054688-2.558594 5.71875-7.835938 3.878906-12.257813zm0 0"/><path d="m97.847656 134.148438h10.511719v10.511718c0 5.523438 4.480469 10 10 10 5.523437 0 10-4.476562 10-10v-10.511718h10.515625c5.523438 0 10-4.480469 10-10 0-5.523438-4.476562-10-10-10h-10.515625v-10.515626c0-5.523437-4.476563-10-10-10-5.519531 0-10 4.476563-10 10v10.515626h-10.511719c-5.523437 0-10 4.476562-10 10 0 5.519531 4.476563 10 10 10zm0 0"/><path d="m447.074219 437.117188h-10.515625v-10.515626c0-5.519531-4.476563-10-10-10-5.523438 0-10 4.480469-10 10v10.515626h-10.511719c-5.523437 0-10 4.476562-10 10 0 5.523437 4.476563 10 10 10h10.511719v10.515624c0 5.519532 4.476562 10 10 10 5.523437 0 10-4.480468 10-10v-10.515624h10.515625c5.523437 0 10-4.476563 10-10 0-5.523438-4.476563-10-10-10zm0 0"/><path d="m355.148438 388.679688h-2.40625v-2.40625c0-5.523438-4.476563-10-10-10-5.523438 0-10 4.476562-10 10v2.40625h-2.402344c-5.523438 0-10 4.476562-10 10 0 5.519531 4.476562 10 10 10h2.402344v2.402343c0 5.523438 4.476562 10 10 10 5.523437 0 10-4.476562 10-10v-2.402343h2.40625c5.523437 0 10-4.480469 10-10 0-5.523438-4.476563-10-10-10zm0 0"/><path d="m215.636719 96.007812c-.394531 3.730469-.601563 7.519532-.601563 11.355469 0 59.203125 48.164063 107.367188 107.367188 107.367188 19.695312 0 38.167968-5.335938 54.054687-14.632813 4.777344-2.441406 9.25-5.859375 13.402344-9.230468 4.171875-3.390626 8.097656-7.089844 11.714844-11.0625 8.449219-9.222657 15.304687-19.925782 20.140625-31.664063.164062-.34375.3125-.695313.4375-1.0625 4.050781-10.140625 6.59375-21.039063 7.363281-32.414063 1.175781-17.050781-1.796875-34.335937-8.617187-50.003906-6.527344-14.992187-16.546876-28.535156-28.980469-39.144531-11.585938-9.886719-25.242188-17.25-39.894531-21.414063-15.550782-4.421874-32.117188-5.28125-48.046876-2.515624-15.808593 2.746093-30.917968 9.105468-43.960937 18.449218-1.652344 1.183594-3.273437 2.414063-4.855469 3.691406-10.230468 8.203126-19.035156 18.308594-25.78125 29.980469-.125.214844-.222656.445313-.332031.671875-7.109375 12.480469-11.792969 26.515625-13.394531 41.460938-.003906.054687-.011719.109375-.015625.167968zm19.398437 11.355469c0-.132812.003906-.265625.003906-.394531h32.558594c5.523438 0 10-4.480469 10-10 0-5.523438-4.476562-10-10-10h-30.152344c1.53125-6.386719 3.769532-12.5 6.621094-18.257812h49.101563c9.542969 0 18.511719-3.714844 25.246093-10.449219l3.300782-3.289063c2.917968-2.925781 6.96875-4.605468 11.105468-4.605468h55.738282c2.84375 3.300781 5.445312 6.8125 7.777344 10.511718h-19.808594c-5.523438 0-10 4.476563-10 10 0 5.519532 4.476562 10 10 10h29.128906c1.316406 4.128906 2.335938 8.386719 3.027344 12.753906h-83.621094c-6.851562 0-13.285156 2.671876-18.101562 7.5l-10.546876 10.539063c-1.0625 1.0625-2.472656 1.648437-3.972656 1.648437h-4.15625c-14.125 0-25.617187 11.488282-25.617187 25.613282 0 6.851562 2.667969 13.285156 7.503906 18.105468 4.839844 4.835938 11.269531 7.5 18.113281 7.5h40.476563c1.5 0 2.910156.585938 3.972656 1.648438l22.242187 22.242188c-10.070312 4.0625-21.066406 6.304687-32.578124 6.304687-48.171876-.003906-87.363282-39.195313-87.363282-87.371094zm31.675782-67.261719c13.800781-11.394531 31.019531-18.421874 48.871093-19.832031 5.273438-.417969 10.574219-.328125 15.839844.191407 11.554687 1.191406 22.445313 4.644531 32.226563 9.90625h-30.824219c-9.410157 0-18.621094 3.816406-25.246094 10.457031l-3.296875 3.285156c-2.964844 2.96875-6.914062 4.601563-11.113281 4.601563h-35.460938c2.789063-3.078126 5.800781-5.957032 9.003907-8.609376zm120.679687 125.5625c-4.238281 4.730469-9.007813 9.019532-14.167969 12.722657l-26.34375-26.347657c-4.839844-4.835937-11.273437-7.5-18.113281-7.5h-40.480469c-1.5 0-2.910156-.585937-3.980468-1.65625-1.054688-1.050781-1.632813-2.453124-1.632813-3.949218 0-3.097656 2.519531-5.617188 5.613281-5.617188h4.15625c6.84375 0 13.277344-2.664062 18.113282-7.496094l10.558593-10.550781c1.050781-1.054687 2.453125-1.636719 3.949219-1.636719h84.476562c0 .015626 0 .027344-.003906.042969-.503906 6.90625-1.84375 13.675781-3.929687 20.175781h-25.113281c-5.523438 0-10 4.476563-10 10 0 5.523438 4.476562 10 10 10h15.804687c.035156 0-2.097656 3.183594-2.394531 3.609376-1.996094 2.855468-4.171875 5.597656-6.511719 8.203124zm0 0"/><path d="m267.382812 268.828125c-11.851562-14.839844-26.304687-27.128906-42.441406-36.414063-2.980468-1.722656-6.019531-3.339843-9.113281-4.847656-1.070313-.519531-2.148437-1.03125-3.230469-1.53125-.007812 0-.011718-.003906-.015625-.007812-11.570312-5.3125-23.929687-9.191406-36.851562-11.414063-5.242188-.90625-10.589844-1.617187-15.910157-1.859375-3.15625-.199218-6.335937-.3125-9.539062-.3125-35.585938 0-68.304688 12.480469-94.03125 33.285156-.320312.207032-.636719.429688-.9375.675782-16.585938 13.601562-30.316406 30.960937-39.703125 50.207031-.125.253906-.234375.515625-.335937.777344-9.46875 19.628906-14.773438 41.625-14.773438 64.835937 0 7.085938.503906 14.054688 1.460938 20.878906.554687 4.777344 1.574218 9.542969 2.703124 14.210938 5.894532 24.640625 17.925782 47.3125 35.292969 66.214844 19.617188 21.355468 44.601563 36.367187 72.441407 43.613281.5.132813 1.003906.257813 1.507812.382813.726562.183593 1.449219.382812 2.179688.554687.089843.019531.179687.027344.269531.042969 10.902343 2.535156 22.261719 3.878906 33.925781 3.878906 22.109375 0 43.417969-4.71875 63.335938-14.027344 5.003906-2.335937 7.164062-8.289062 4.824218-13.292968-2.335937-5.003907-8.289062-7.164063-13.292968-4.824219-17.246094 8.058593-35.707032 12.144531-54.871094 12.144531-7.46875 0-14.789063-.644531-21.917969-1.859375v-26.84375c0-7.132813-2.777344-13.84375-7.832031-18.894531-5.046875-5.050782-11.757813-7.832032-18.894532-7.832032-1.769531 0-3.5-.71875-4.753906-1.972656l-26.191406-26.1875c-1.253906-1.253906-1.972656-2.988281-1.972656-4.757812v-8.304688c0-14.734375-11.988282-26.726562-26.726563-26.726562h-20.199219c-.378906 0-.753906.03125-1.128906.074218-.105468-2.144531-.160156-4.304687-.160156-6.472656 0-15.300781 2.667969-29.992187 7.554688-43.632812l11.585937 11.585937c5.234375 5.234375 12.191406 8.117188 19.589844 8.117188 7.394531 0 14.351562-2.878907 19.601562-8.117188 5.234375-5.234375 8.117188-12.195312 8.117188-19.601562v-33.800781c0-7.40625-2.882813-14.367188-8.117188-19.601563l-1.933593-1.933594c20.648437-14.207031 45.589843-22.597656 72.445312-22.785156v12.53125c0 1.636719-.632812 3.171875-1.78125 4.320313l-17.265625 17.261718c-4.925781 4.929688-7.640625 11.484375-7.640625 18.460938v32.253906c0 6.957031 2.710938 13.507812 7.644531 18.460938l21.167969 21.167968v56.542969c0 9.746094 5.367188 18.609375 14.003906 23.128906 3.824219 2.003907 7.976563 2.992188 12.121094 2.992188 5.214844 0 10.40625-1.570313 14.871094-4.667969l9.324218-6.46875c7.03125-4.875 11.230469-12.894531 11.230469-21.453125v-13.828125c0-1.632812.628907-3.160156 1.804688-4.332031 1.144531-1.148438 2.671875-1.78125 4.304687-1.78125 14.398438 0 26.113282-11.710938 26.113282-26.109375v-45.707032c0-1.25.378906-2.457031 1.085937-3.484374l13.351563-19.273438c12.894531 20.15625 20.378906 44.097656 20.378906 69.753906 0 24.851563-7.042969 49.003906-20.375 69.839844-2.976563 4.648438-1.617188 10.835938 3.035156 13.8125s10.835938 1.617188 13.8125-3.035156c15.394531-24.058594 23.53125-51.9375 23.53125-80.617188 0-34.871094-11.980469-66.996094-32.035156-92.476562-.203125-.316406-.410156-.625-.644532-.917969zm-243.957031 119.792969h18.5625c3.710938 0 6.726563 3.019531 6.726563 6.726562v8.304688c0 7.035156 2.855468 13.921875 7.832031 18.898437l26.191406 26.191407c4.976563 4.976562 11.863281 7.828124 18.894531 7.828124 1.796876 0 3.484376.699219 4.753907 1.972657 1.273437 1.273437 1.972656 2.960937 1.972656 4.753906v21.753906c-42-14.375-74.355469-49.71875-84.511719-93.484375-.023437-.109375-.050781-.21875-.074218-.328125-.195313-.847656-.378907-1.695312-.554688-2.546875zm41.265625-117.304688c1.457032 1.457032 2.257813 3.394532 2.257813 5.457032v33.800781c0 2.066406-.800781 4.003906-2.25 5.449219-1.464844 1.464843-3.410157 2.269531-5.46875 2.269531-2.058594 0-3.992188-.800781-5.449219-2.257813l-16.886719-16.886718c6.5-11.640626 14.734375-22.179688 24.359375-31.269532zm165.1875 29.046875c-3.035156 4.394531-4.640625 9.535157-4.640625 14.863281v45.707032c0 3.371094-2.742187 6.113281-6.109375 6.113281-6.988281 0-13.550781 2.71875-18.449218 7.636719-4.941407 4.925781-7.664063 11.484375-7.664063 18.472656v13.832031c0 2.003907-.980469 3.878907-2.625 5.015625l-9.324219 6.46875c-2.746094 1.902344-5.335937.910156-6.320312.394532-.988282-.515626-3.28125-2.074219-3.28125-5.410157v-60.6875c0-2.652343-1.050782-5.195312-2.925782-7.070312l-24.085937-24.085938c-1.140625-1.144531-1.796875-2.722656-1.796875-4.332031v-32.25c0-1.613281.648438-3.1875 1.785156-4.320312l17.261719-17.261719c4.929687-4.929688 7.640625-11.484375 7.640625-18.460938v-11.140625c12.945312 1.910156 25.578125 5.824219 37.355469 11.515625 15.335937 7.433594 28.992187 17.800781 40.246093 30.367188zm0 0"/></svg>