<svg height="511pt" viewBox="1 -4 511.999 511" width="511pt" xmlns="http://www.w3.org/2000/svg"><path d="m306.914062 85.28125-43.34375 25.84375c-9.199218 5.019531-19.515624 7.648438-29.996093 7.648438h-114.246094c-41.871094 0-75.816406 33.945312-75.816406 75.816406v107.992187c0 13.90625 11.273437 25.175781 25.175781 25.175781 13.90625 0 25.179688-11.269531 25.179688-25.175781v-96.527343 238.03125c0 15.667968 12.703124 28.371093 28.371093 28.371093h2c15.667969 0 28.367188-12.703125 28.367188-28.371093v-101.816407c0-8.011719 6.496093-14.507812 14.511719-14.507812 8.011718 0 14.511718 6.496093 14.511718 14.507812v101.816407c0 15.667968 12.699219 28.371093 28.367188 28.371093 15.667968 0 28.371094-12.703125 28.371094-28.371093v-244.644532l98.386718-64.234375c8.234375-5.371093 13.199219-14.539062 13.199219-24.371093 0-22.09375-23.644531-36.128907-43.039063-25.554688zm0 0" fill="#e5ecec"/><path d="m349.945312 110.835938c0 9.832031-4.957031 19-13.1875 24.371093l-7.449218 4.859375-30.300782-50.46875 7.910157-4.308594c4.519531-2.472656 9.269531-3.601562 13.898437-3.601562 15.230469 0 29.128906 12.210938 29.128906 29.148438zm0 0" fill="#8291a8"/><path d="m93.867188 290.566406v12.019532c0 6.949218-2.816407 13.25-7.367188 17.796874-4.5625 4.5625-10.859375 7.382813-17.8125 7.382813-13.910156 0-25.179688-11.28125-25.179688-25.179687v-12.019532zm0 0" fill="#8291a8"/><path d="m10 472.457031h309.542969l21.917969-24.839843h109.609374l17.789063 24.839843h33.140625v30.042969h-492zm0 0" fill="#e5ecec"/><path d="m349.953125 38.253906h124.613281l-39.195312 49.195313 40.953125 50.953125h-126.371094zm0 0" fill="#d8a1e4"/><path d="m189.300781 118.773438h-48.351562c-14.191407 0-25.695313-11.507813-25.695313-25.699219v-32.703125c0-27.542969 22.328125-49.871094 49.871094-49.871094s49.871094 22.328125 49.871094 49.871094v32.707031c0 14.191406-11.503906 25.695313-25.695313 25.695313zm0 0" fill="#e5ecec"/><g fill="#8291a8"><path d="m132.1875 170.109375h65.875v49.878906h-65.875zm0 0"/><path d="m140.949219 118.773438h-21.621094c-13.230469 0-25.679687 3.390624-36.507813 9.359374v-55.289062c0-13.277344 10.769532-24.050781 24.046876-24.050781h9.730468c-.878906 3.722656-1.347656 7.589843-1.347656 11.582031v32.699219c0 14.191406 11.507812 25.699219 25.699219 25.699219zm0 0"/><path d="m247.289062 72.84375v44.410156c-4.480468 1-9.078124 1.519532-13.710937 1.519532h-44.277344c14.1875 0 25.699219-11.507813 25.699219-25.699219v-32.699219c0-3.992188-.472656-7.859375-1.351562-11.582031h9.601562c13.277344 0 24.039062 10.773437 24.039062 24.050781zm0 0"/></g><path d="m115.25 60.375s24.824219-11.582031 49.875-11.582031 49.875 11.585937 49.875 11.582031c-.003906-.003906 0 26.714844 0 26.714844s-24.738281 0-49.875 0-49.871094 0-49.871094 0zm0 0" fill="#95e8fa"/><path d="m502 462.457031h-28.003906l-14.796875-20.664062c-3.21875-4.488281-9.464844-5.519531-13.953125-2.304688-4.492188 3.214844-5.523438 9.460938-2.308594 13.949219l17.792969 24.839844c1.875 2.625 4.902343 4.179687 8.128906 4.179687h33.140625c5.523438 0 10-4.480469 10-10 0-5.523437-4.476562-10-10-10zm0 0"/><path d="m373.0625 437.617188h-13.109375v-289.21875h116.371094c3.847656 0 7.355469-2.207032 9.019531-5.679688 1.664062-3.46875 1.1875-7.585938-1.226562-10.585938l-35.9375-44.710937 34.210937-42.9375c2.390625-3.003906 2.851563-7.113281 1.1875-10.574219-1.667969-3.457031-5.167969-5.65625-9.011719-5.65625h-114.613281v-8.539062c0-5.523438-4.476563-10-10-10s-10 4.476562-10 10v56.992187c-2.640625-1.488281-5.464844-2.675781-8.4375-3.519531-6.984375-2.019531-14.574219-1.992188-21.546875.066406-4.570312 1.347656-8.644531 3.691406-12.792969 5.953125-1.84375 1.003907-3.863281 1.902344-5.339843 3.425781l-33.210938 19.800782c-.4375.238281-.890625.445312-1.335938.667968v-30.257812c0-18.773438-15.269531-34.050781-34.039062-34.050781h-2.289062c-8.683594-22.378907-30.429688-38.292969-55.835938-38.292969s-47.152344 15.914062-55.832031 38.292969h-2.425781c-18.773438 0-34.046876 15.277343-34.046876 34.050781v49.683594c-23.628906 15.300781-39.308593 41.878906-39.308593 72.066406v95.933594c0 .011718-.003907.023437-.003907.039062v12.019532c0 19.398437 15.78125 35.179687 35.179688 35.179687 2.027344 0 4.066406-.175781 6.058594-.527344 3.175781-.546875 6.238281-1.519531 9.121094-2.898437v109.75c0 6.652344 1.707031 12.917968 4.699218 18.378906l-78.566406-.011719c-5.523438 0-10 4.476563-10 10 0 5.519531 4.476562 10 10 10l309.542969.042969c2.871093 0 5.605469-1.234375 7.503906-3.390625l18.933594-21.492187h27.082031c5.523438 0 10-4.480469 10-10 0-5.523438-4.476562-10-10-10zm-33.246094-324.554688c-.585937 5.082031-3.261718 9.78125-7.3125 12.902344-2.195312-3.65625-4.386718-7.308594-6.582031-10.960938-3.515625-5.855468-7.027344-11.710937-10.542969-17.566406-.804687-1.335938-1.605468-2.671875-2.40625-4.007812 2.257813-1.042969 4.75-1.628907 7.238282-1.710938 3.574218-.121094 7.164062.773438 10.386718 2.6875 1.335938.792969 2.542969 1.730469 3.617188 2.777344 3.457031 3.472656 5.472656 8.160156 5.707031 12.753906.050781 1.042969.019531 2.089844-.105469 3.125zm113.996094-64.808594-26.261719 32.964844c-2.914062 3.65625-2.902343 8.847656.027344 12.496094l27.878906 34.6875h-95.503906v-80.148438zm-216.523438 24.589844v35.785156c-5.28125.378906-10.636718.144532-15.929687.144532 2.386719-4.855469 3.640625-10.289063 3.640625-15.699219v-32.699219c0-.492188-.007812-.984375-.019531-1.472656 6.925781.855468 12.308593 6.78125 12.308593 13.941406zm-32.292968 4.246094h-79.742188v-10.019532c8.269532-3.136718 24.207032-8.277343 39.871094-8.277343 15.769531 0 31.617188 5.117187 39.871094 8.265625zm-64.046875 31.683594c-7.265625 0-13.375-4.96875-15.15625-11.683594h78.664062c-1.78125 6.710937-7.890625 11.683594-15.15625 11.683594zm24.175781-88.273438c16.480469 0 30.65625 10.050781 36.722656 24.34375-10.011718-3.066406-23.21875-6.050781-36.722656-6.050781-13.46875 0-26.710938 3-36.730469 6.0625 6.066407-14.300781 20.246094-24.355469 36.730469-24.355469zm-72.304688 92.464844v-40.121094c0-7.207031 5.453126-13.160156 12.449219-13.957031-.011719.496093-.019531.992187-.019531 1.488281v32.699219c0 5.636719 1.363281 11.289062 3.941406 16.300781-5.542968.660156-11.0625 1.863281-16.371094 3.589844zm6.71875 18.851562c6.390626-2.007812 13.089844-3.042968 19.789063-3.042968h21.621094.039062 48.273438.039062 44.277344c5.382813 0 10.988281-.488282 16.210937-1.847657 6.464844-1.480469 12.726563-3.835937 18.570313-7.019531.113281-.0625.222656-.125.332031-.191406l27.050782-16.128906 20.035156 33.375-82.878906 54.109374c-2.828126 1.84375-4.53125 4.992188-4.53125 8.371094v244.644532c0 10.128906-8.242188 18.371093-18.371094 18.371093s-18.367188-8.242187-18.367188-18.371093v-101.816407c0-13.515625-10.996094-24.507812-24.511718-24.507812-13.511719 0-24.507813 10.992187-24.507813 24.507812v101.816407c0 10.128906-8.242187 18.371093-18.371094 18.371093h-2c-10.128906 0-18.371093-8.242187-18.371093-18.371093v-141.441407c0-.019531 0-.039062 0-.058593v-12.023438c0-.007812 0-.019531 0-.027344v-84.480468c0-5.523438-4.476563-10-10-10-5.523438 0-10 4.476562-10 10v74.507812h-30.355469v-85.972656c0-29.398438 19.378906-54.351563 46.027343-62.773438zm-46.027343 168.746094h30.355469v2.019531c0 8.371094-6.808594 15.179688-15.179688 15.179688-8.367188 0-15.175781-6.808594-15.175781-15.179688zm109.09375 143.523438v-101.816407c0-2.484375 2.023437-4.507812 4.511719-4.507812 2.484374 0 4.507812 2.023437 4.507812 4.507812v101.816407c0 6.660156 1.710938 12.929687 4.707031 18.394531l-18.429687-.003907c2.996094-5.464843 4.703125-11.730468 4.703125-18.390624zm171.351562-3.078126-18.929687 21.492188-71.371094-.011719c3-5.464843 4.710938-11.738281 4.710938-18.402343v-239.230469l90.515624-59.097657 1.066407-.695312v292.683594c-2.300781.351562-4.429688 1.488281-5.992188 3.261718zm0 0"/><path d="m132.1875 229.988281h65.875c5.523438 0 10-4.480469 10-10v-49.878906c0-5.523437-4.476562-10-10-10h-65.875c-5.523438 0-10 4.476563-10 10v49.878906c0 5.523438 4.476562 10 10 10zm10-49.878906h45.875v29.878906h-45.875zm0 0"/><path d="m421.648438 444.578125c-1.632813-3.921875-5.703126-6.453125-9.949219-6.148437-4.152344.300781-7.746094 3.234374-8.894531 7.234374-1.148438 4 .382812 8.453126 3.785156 10.871094 3.367187 2.394532 7.925781 2.464844 11.371094.183594 3.9375-2.605469 5.472656-7.785156 3.6875-12.140625zm0 0"/></svg>