<svg height="512pt" viewBox="0 -6 512.00005 512" width="512pt" xmlns="http://www.w3.org/2000/svg"><path d="m458.617188 146.011719-60.46875 72.847656h-.007813c-2.1875.023437-4.371094-.054687-6.570313-.222656-16.363281-1.289063-31.859374-7.890625-44.121093-18.800781l-97.667969-86.933594c-4.886719-4.359375-10.285156-8.019532-16.035156-10.929688l78.714844-88.347656s28.078124-20.273438 99.886718 35.023438c65.417969 62.722656 46.269532 97.363281 46.269532 97.363281zm0 0" fill="#8291a8"/><path d="m501.421875 216.160156c-.917969 4.328125-2.953125 8.492188-6.125 12.054688l-4.351563 4.886718c-28.105468 31.589844-68.78125 49.097657-111.042968 47.820313l-35.226563-1.058594c-17.027343-.519531-33.414062 6.535157-44.753906 19.269531l-161.898437 180.671876c-11.40625 12.730468-30.917969 13.945312-43.816407 2.734374l-1.082031-.9375c-13.222656-11.496093-14.425781-31.613281-2.664062-44.601562l73.890624-81.613281c6.277344-6.9375 5.667969-17.65625-1.351562-23.84375-2.242188-1.96875-4.855469-3.234375-7.574219-3.8125-5.683593-1.210938-11.832031.570312-15.976562 5.203125l-74.9375 83.09375c-11.421875 12.664062-30.886719 13.84375-43.753907 2.652344-13.164062-11.445313-14.421874-31.445313-2.796874-44.449219l178.425781-199.632813c5.539062-6.21875.785156-16.011718-7.511719-15.539062-10.421875.617187-20.511719 3.273437-29.730469 7.730468-9.230469 4.457032-17.574219 10.730469-24.523437 18.523438l-31.613282 35.527344c-9.605468 10.785156-26.136718 11.753906-36.933593 2.144531-7.285157-6.484375-10.082031-16.105469-8.191407-25.007813.914063-4.296874 2.917969-8.414062 6.046876-11.921874l44.4375-49.9375c22.273437-25.023438 53.59375-40.179688 87.035156-42.128907 6.769531-.390625 13.480468.128907 19.996094 1.515625 12.671874 2.691406 24.542968 8.632813 34.375 17.40625l97.667968 86.925782c12.273438 10.914062 27.761719 17.511718 44.125 18.796874 11.726563.917969 23.335938-.925781 33.976563-5.210937 10.625-4.265625 20.269531-10.984375 28.09375-19.765625l.296875-.339844c9.898437-11.125 27.296875-12.355468 38.679687-2.765625 7.714844 6.527344 10.761719 16.433594 8.808594 25.609375zm0 0" fill="#e5ecec"/><path d="m113.984375 208.503906-.039063.046875-10.933593 12.285157c-9.605469 10.789062-26.140625 11.757812-36.941407 2.148437-7.277343-6.480469-10.082031-16.109375-8.191406-25.007813.910156-4.296874 2.925782-8.421874 6.050782-11.929687l11.988281-13.476563zm0 0" fill="#8291a8"/><path d="m501.417969 216.15625c-.917969 4.328125-2.949219 8.496094-6.125 12.0625l-4.34375 4.882812c-2.308594 2.589844-4.710938 5.09375-7.175781 7.5l-2.429688 2-37.902344-39.445312.003906-.007812c3.664063-2.820313 7.070313-5.992188 10.195313-9.492188l.296875-.34375c9.890625-11.113281 27.296875-12.355469 38.675781-2.753906 7.71875 6.519531 10.753907 16.425781 8.804688 25.597656zm0 0" fill="#8291a8"/><path d="m337.21875 190.707031-54.617188-48.613281c-7.398437-6.585938-8.054687-17.921875-1.472656-25.316406l33.292969-37.402344c20.007813-22.480469 54.453125-24.480469 76.929687-4.472656 22.480469 20.007812 24.484376 54.453125 4.472657 76.933594l-33.292969 37.398437c-6.582031 7.398437-17.917969 8.058594-25.3125 1.472656zm0 0" fill="#e5ecec"/><path d="m399.824219 146.773438c-1.207031 1.746093-2.550781 3.433593-3.996094 5.066406l-16.667969 18.722656c-9.382812-2.941406-26.535156-10.394531-47.265625-28.847656l-.019531-.003906c-20.722656-18.453126-30.117188-34.625-34.125-43.601563l16.671875-18.738281c1.445313-1.632813 2.96875-3.148438 4.574219-4.554688 9.472656 3.039063 26.433594 10.550782 46.855468 28.722656l.011719.011719c20.425781 18.191407 29.851563 34.171875 33.960938 43.222657zm0 0" fill="#95e8fa"/><path d="m195.582031 223.304688 43.652344-49.164063 73.890625 65.609375-43.65625 49.164062zm0 0" fill="#8291a8"/><path d="m510.03125 198.914062c-1.1875-3.453124-2.914062-6.714843-5.097656-9.691406-1.6875-2.292968-3.640625-4.425781-5.875-6.316406-3.351563-2.824219-7.078125-4.953125-11-6.414062-.046875-.019532-.097656-.042969-.144532-.058594-.183593-.066406-.371093-.125-.554687-.1875-10.65625-3.738282-22.648437-2.546875-32.363281 3.328125-3.117188 1.886719-6.003906 4.253906-8.53125 7.09375-2.675782 3.046875-5.65625 5.855469-8.855469 8.34375-4.125 3.222656-8.625 5.933593-13.371094 8.074219l42.074219-50.6875c.398438-.480469.753906-1 1.058594-1.546876.671875-1.21875 6.457031-12.457031 2.4375-32.011718-4.914063-23.921875-21.917969-49.964844-50.539063-77.40625-.261719-.25-.535156-.484375-.820312-.707032-75.539063-58.167968-108.351563-37.730468-111.84375-35.207031-.589844.421875-1.128907.910157-1.613281 1.453125l-73.847657 82.886719c-4.417969-1.753906-8.988281-3.144531-13.664062-4.136719-7.433594-1.582031-15.054688-2.160156-22.660157-1.71875-35.832031 2.089844-70.066406 18.664063-93.921874 45.464844l-32.347657 36.351562c-.035156.035157-.070312.066407-.101562.101563l-11.984375 13.472656c-4.175782 4.6875-7.066406 10.394531-8.367188 16.503907-2.699218 12.695312 1.644532 25.9375 11.328125 34.554687 11.253907 10.015625 28.070313 11.9375 41.308594 4.753906 3.667969-1.992187 7.007813-4.628906 9.777344-7.757812l10.902343-12.25c.011719-.011719.023438-.023438.03125-.039063l20.644532-23.191406c6.054687-6.796875 13.257812-12.238281 21.410156-16.175781 7.667969-3.710938 15.851562-5.941407 24.339844-6.636719l-100.054688 111.945312c-3.683594 4.121094-3.328125 10.441407.789063 14.121094 4.121093 3.679688 10.441406 3.328125 14.121093-.792968l101.160157-113.183594c5.21875-5.859375 6.382812-14.210938 2.96875-21.273438-3.414063-7.0625-10.679688-11.339844-18.539063-10.894531-11.703125.691406-22.976562 3.621094-33.492187 8.707031-10.523438 5.085938-19.820313 12.109375-27.640625 20.882813l-13.792969 15.496093-23.507813-22.195312 25.988282-29.203125c20.355468-22.871094 49.566406-37.011719 80.140625-38.792969 5.824219-.339844 11.65625.101563 17.339843 1.3125 11.070313 2.351563 21.371094 7.566406 29.804688 15.09375l97.675781 86.929688c13.816407 12.285156 31.570313 19.847656 49.988281 21.292968 2.488282.195313 5 .285157 7.496094.25 10.597656-.113281 21.179688-2.203124 30.984375-6.148437 4.449219-1.789063 8.75-3.96875 12.847657-6.496094l24.863281 25.875c-24.402344 19.460938-55.007813 29.808594-86.773438 28.84375l-35.222656-1.058593c-20.035156-.59375-39.1875 7.628906-52.507813 22.589843l-161.898437 180.675781c-7.714844 8.605469-21.085937 9.441407-29.808594 1.859376l-1.082031-.9375c-4.351562-3.785157-6.9375-9.039063-7.28125-14.792969-.34375-5.753907 1.597656-11.277344 5.46875-15.550781l73.894531-81.617188c4.84375-5.355469 7.285157-12.273438 6.878907-19.476562-.410157-7.207032-3.617188-13.804688-9.054688-18.59375-3.453125-3.027344-7.632812-5.128907-12.089844-6.074219-9.363281-1.988281-19.136718 1.195312-25.480468 8.289062l-74.9375 83.089844c-7.714844 8.558594-21.066407 9.371094-29.765626 1.808594-4.332031-3.765625-6.914062-8.996094-7.273437-14.722657-.363281-5.726562 1.546875-11.238281 5.371094-15.515624l22.824219-25.539063c3.679687-4.117187 3.324218-10.4375-.792969-14.121094-4.117188-3.679687-10.4375-3.324219-14.121094.792969l-22.824219 25.535156c-7.417968 8.300782-11.121094 18.992188-10.4218748 30.101563.6992188 11.113281 5.7109378 21.253906 14.1132808 28.558593 16.867188 14.667969 42.769532 13.097657 57.742188-3.503906l74.964844-83.121094c1.601562-1.792968 4.078125-2.59375 6.441406-2.089843 1.132812.242187 2.164062.761719 3.046875 1.535156 1.371094 1.207031 2.183594 2.878906 2.285156 4.699219.105469 1.824218-.511719 3.574218-1.738281 4.925781l-73.890625 81.617187c-7.503906 8.289063-11.269531 19.003907-10.605469 30.167969.667969 11.164063 5.6875 21.351563 14.125 28.6875l1.082032.941407c7.757812 6.746093 17.410156 10.058593 27.035156 10.058593 11.363281 0 22.6875-4.621093 30.789062-13.664062l161.917969-180.695313c9.394531-10.554687 22.871094-16.359375 36.984375-15.925781l35.230469 1.058594c1.558593.046875 3.109375.070312 4.660156.070312 39.886719 0 77.878906-15.46875 106.351563-43.101562 4.324218-4.0625 8.203124-8.589844 12.144531-13.019531 4.21875-4.730469 7.140625-10.480469 8.445312-16.628907 1.390625-6.554687.921875-13.214843-1.175781-19.324219zm-409.972656 10.199219-4.519532 5.078125c-4.363281 4.898438-11.464843 6.65625-17.621093 4.410156-6.277344-2.289062-10.539063-8.363281-10.605469-15.035156-.039062-3.980468 1.4375-7.894531 4.089844-10.863281l5.148437-5.785156zm149.140625-109.453125 69.535156-78.046875c4.621094-1.871093 30.359375-8.917969 87.082031 34.628907 52.558594 50.570312 45.765625 79.792968 44.171875 84.507812l-56.421875 67.972656c-.402344-.023437-.808594-.027344-1.210937-.058594 0 0 0 0-.003907 0-9.585937-.753906-18.933593-3.675781-27.257812-8.417968 1.78125-1.242188 3.429688-2.699219 4.910156-4.363282l16.582032-18.628906c5.316406-5.992187 10.65625-11.964844 15.984374-17.949218 1.984376-2.230469 3.925782-4.523438 5.582032-7.011719 8.1875-11.789063 12.199218-25.875 11.351562-40.429688-.996094-17.199219-8.636718-32.976562-21.503906-44.429687-24.566406-21.867188-61.34375-21.460938-85.4375-.261719-4.96875 4.171875-9.113281 9.484375-13.414062 14.320313l-25.488282 28.636718c-1.835937 2.0625-3.304687 4.324219-4.417968 6.703125l-12.808594-11.398437c-2.296875-2.046875-4.726563-3.984375-7.234375-5.773438zm39.398437 23.765625 7.167969-8.050781c6.085937 9.605469 15.367187 21.253906 29.460937 33.804688.101563.09375.210938.183593.316407.269531 13.972656 12.390625 26.511719 20.183593 36.691406 25.082031l-7.171875 8.054688c-1.40625 1.585937-3.347656 2.523437-5.464844 2.644531-2.109375.125-4.148437-.582031-5.730468-1.992188l-54.617188-48.613281c-3.265625-2.910156-3.558594-7.933594-.652344-11.199219zm110.042969 1.476563c-5.992187-8.53125-14.386719-18.363282-26.125-28.820313-.039063-.035156-.078125-.066406-.117187-.101562-11.6875-10.386719-22.378907-17.550781-31.519532-22.503907 4.613282-1.546874 9.433594-2.34375 14.269532-2.34375 10.527343 0 21.09375 3.707032 29.558593 11.238282 8.875 7.902344 14.144531 18.789062 14.832031 30.652344.238282 4.039062-.082031 8.023437-.898437 11.878906zm-77.085937-38.5c8.683593 3.570312 22.011718 10.695312 37.648437 24.605468.035156.03125.070313.0625.105469.09375 15.585937 13.898438 24.175781 26.273438 28.710937 34.460938l-11.828125 13.289062c-8.738281-3.585937-22.03125-10.703124-37.652344-24.609374-.097656-.085938-.199218-.171876-.300781-.257813-15.441406-13.808594-23.976562-26.078125-28.515625-34.289063l3.972656-4.464843zm136.355468 117.269531c2.152344-2.171875 4.164063-4.800781 6.730469-6.515625 2.8125-1.875 6.144531-2.886719 9.519531-2.996094 4.277344-.136718 8.605469 1.175782 12 4.039063 4.628906 3.910156 6.726563 9.992187 5.476563 15.878906 0 .972656-.609375 2.214844-.992188 3.09375-.433593.996094-.972656 1.953125-1.59375 2.84375-.664062.953125-5.65625 6.554687-7.417969 8.457031-2.691406-2.804687-23.722656-24.800781-23.722656-24.800781zm0 0"/><path d="m262.8125 296.390625c1.835938 1.628906 4.199219 2.523437 6.640625 2.523437.195313 0 .394531-.003906.59375-.019531 2.644531-.15625 5.121094-1.355469 6.882813-3.339843l43.652343-49.164063c3.667969-4.128906 3.292969-10.449219-.835937-14.117187l-73.890625-65.605469c-1.980469-1.761719-4.578125-2.660157-7.230469-2.507813-2.648438.160156-5.125 1.359375-6.886719 3.34375l-43.648437 49.164063c-3.667969 4.128906-3.292969 10.449219.835937 14.117187zm-22.757812-108.128906 58.933593 52.328125-30.375 34.207031-58.929687-52.324219zm0 0"/><path d="m330.835938 419.703125h-7.542969v-7.542969c0-5.523437-4.476563-10-10-10-5.519531 0-10 4.476563-10 10v7.542969h-7.542969c-5.519531 0-10 4.476563-10 10s4.480469 10 10 10h7.542969v7.542969c0 5.523437 4.480469 10 10 10 5.523437 0 10-4.476563 10-10v-7.542969h7.542969c5.523437 0 10-4.476563 10-10s-4.476563-10-10-10zm0 0"/><path d="m435.617188 328.4375h-3.660157v-3.664062c0-5.519532-4.480469-10-10-10-5.523437 0-10 4.480468-10 10v3.664062h-3.664062c-5.519531 0-10 4.476562-10 10s4.480469 10 10 10h3.664062v3.660156c0 5.523438 4.476563 10 10 10 5.519531 0 10-4.476562 10-10v-3.660156h3.660157c5.523437 0 10-4.476562 10-10s-4.476563-10-10-10zm0 0"/><path d="m48.789062 76.042969h10.679688v10.675781c0 5.523438 4.476562 10 10 10 5.519531 0 10-4.476562 10-10v-10.675781h10.675781c5.519531 0 10-4.480469 10-10 0-5.523438-4.480469-10-10-10h-10.679687v-10.679688c0-5.523437-4.476563-10-10-10-5.519532 0-10 4.476563-10 10v10.675781h-10.675782c-5.523437 0-10 4.476563-10 10 0 5.523438 4.476563 10.003907 10 10.003907zm0 0"/><path d="m64.308594 327.324219c3.859375 1.578125 8.417968.585937 11.226562-2.515625 2.773438-3.058594 3.378906-7.605469 1.492188-11.285156-1.953125-3.804688-6.253906-6.003907-10.484375-5.304688-4.082031.671875-7.394531 3.855469-8.203125 7.914062-.917969 4.625 1.621094 9.375 5.96875 11.191407zm0 0"/></svg>